<?xml version="1.0" encoding="UTF-8" standalone="no"?>
<!-- Created with Inkscape (http://www.inkscape.org/) -->

<svg
   width="210mm"
   height="297mm"
   viewBox="0 0 210 297"
   version="1.1"
   id="svg5"
   inkscape:version="1.1 (c4e8f9e, 2021-05-24)"
   sodipodi:docname="DROPSLAND LOGO 2025.svg"
   xmlns:inkscape="http://www.inkscape.org/namespaces/inkscape"
   xmlns:sodipodi="http://sodipodi.sourceforge.net/DTD/sodipodi-0.dtd"
   xmlns="http://www.w3.org/2000/svg"
   xmlns:svg="http://www.w3.org/2000/svg">
  <sodipodi:namedview
     id="namedview7"
     pagecolor="#ffffff"
     bordercolor="#666666"
     borderopacity="1.0"
     inkscape:pageshadow="2"
     inkscape:pageopacity="0.0"
     inkscape:pagecheckerboard="0"
     inkscape:document-units="mm"
     showgrid="false"
     inkscape:zoom="0.51491302"
     inkscape:cx="368.99436"
     inkscape:cy="704.97343"
     inkscape:window-width="1399"
     inkscape:window-height="800"
     inkscape:window-x="0"
     inkscape:window-y="25"
     inkscape:window-maximized="0"
     inkscape:current-layer="layer1" />
  <defs
     id="defs2">
    <rect
       x="149.53982"
       y="341.8053"
       width="543.78116"
       height="260.23813"
       id="rect2872" />
  </defs>
  <g
     inkscape:label="Capa 1"
     inkscape:groupmode="layer"
     id="layer1">
    <g
       aria-label="DROPSLAND"
       transform="scale(0.26458333)"
       id="text2870"
       style="font-size:74.6667px;line-height:1.25;font-family:'a Big Deal';-inkscape-font-specification:'a Big Deal';white-space:pre;shape-inside:url(#rect2872)">
      <path
         d="m 146.92573,412.3815 h 22.69868 c 12.096,0 21.13067,-3.36 27.40268,-9.632 5.6,-5.60001 8.58667,-12.76801 8.58667,-20.60801 0,-6.34667 -1.792,-11.42401 -5.67467,-15.30668 -3.95734,-3.95733 -10.30401,-6.72 -20.45868,-6.72 h -18.51734 z m 21.57867,-15.23201 5.82401,-21.80267 h 2.912 c 4.18133,0 6.79467,0.97066 8.43734,2.61333 1.344,1.344 2.16533,3.21067 2.16533,6.048 0,3.21067 -1.568,6.72001 -3.73333,8.88534 -2.68801,2.688 -7.24267,4.256 -12.54401,4.256 z"
         style="font-family:'Gotham Ultra';-inkscape-font-specification:'Gotham Ultra'"
         id="path7672" />
      <path
         d="m 202.63409,412.3815 h 17.47201 l 4.032,-14.93334 h 4.33067 l 5.824,14.93334 h 18.81601 l -7.24267,-17.39734 c 10.304,-3.21067 14.56,-10.22934 14.56,-18.36801 0,-4.10667 -1.19466,-7.98934 -4.10666,-10.90134 -3.50934,-3.50933 -9.63201,-5.6 -19.26401,-5.6 h -20.38401 z m 24.78934,-27.40268 2.76267,-10.22934 h 6.19734 c 2.464,0 4.18133,0.52267 5.152,1.49334 0.74667,0.74666 1.12,1.71733 1.12,2.76266 0,3.28534 -3.06134,5.97334 -8.88534,5.97334 z"
         style="font-family:'Gotham Ultra';-inkscape-font-specification:'Gotham Ultra'"
         id="path7674" />
      <path
         d="m 288.02713,413.42683 c 17.54667,0 30.76268,-14.48534 30.76268,-30.68801 0,-13.36534 -10.60267,-23.66935 -25.98401,-23.66935 -17.54668,0 -30.76269,14.48534 -30.76269,30.68802 0,13.36534 10.60268,23.66934 25.98402,23.66934 z m 1.19466,-15.38134 c -6.272,0 -9.632,-4.33067 -9.632,-9.856 0,-6.57067 4.704,-13.73867 12.02134,-13.73867 6.272,0 9.632,4.33066 9.632,9.856 0,6.57067 -4.704,13.73867 -12.02134,13.73867 z"
         style="font-family:'Gotham Ultra';-inkscape-font-specification:'Gotham Ultra'"
         id="path7676" />
      <path
         d="m 315.94663,412.3815 h 17.47201 l 3.808,-14.18667 h 7.39201 c 16.576,0 26.43201,-8.73601 26.43201,-21.80268 0,-4.10667 -1.344,-7.76534 -4.10667,-10.52801 -3.88267,-3.88266 -9.78134,-5.74933 -19.41334,-5.74933 h -17.54668 z m 24.64001,-26.65601 3.06134,-11.64801 h 3.28533 c 1.94134,0 4.03201,0.448 5.22667,1.64267 0.82134,0.82133 1.26934,1.94133 1.26934,3.06133 0,3.95734 -3.06134,6.94401 -9.70667,6.94401 z"
         style="font-family:'Gotham Ultra';-inkscape-font-specification:'Gotham Ultra'"
         id="path7678" />
      <path
         d="m 390.77784,413.42683 c 15.008,0 23.66934,-8.21333 23.66934,-18.74134 0,-7.98934 -5.67467,-11.72267 -14.56001,-15.00801 -7.24267,-2.688 -8.36267,-2.98666 -8.36267,-4.55466 0,-1.49334 1.568,-2.09067 3.80801,-2.09067 5.52533,0 11.12533,2.61333 15.08267,5.824 l 10.00534,-11.94667 c -5.67467,-4.85334 -13.96268,-7.84001 -23.29601,-7.84001 -14.26134,0 -23.52001,8.21334 -23.52001,18.29335 0,7.69067 4.55466,11.12534 14.26134,14.70934 7.616,2.83733 8.58667,3.36 8.58667,5.00267 0,1.49333 -1.568,2.31466 -3.80801,2.31466 -5.52533,0 -11.648,-2.38933 -17.62134,-7.392 l -10.00534,11.94667 c 6.34667,5.74934 15.38135,9.48267 25.76002,9.48267 z"
         style="font-family:'Gotham Ultra';-inkscape-font-specification:'Gotham Ultra'"
         id="path7680" />
      <path
         d="m 413.80085,412.3815 h 41.29069 l 4.032,-14.93334 h -23.81868 l 10.00534,-37.33335 h -17.47201 z"
         style="font-family:'Gotham Ultra';-inkscape-font-specification:'Gotham Ultra'"
         id="path7682" />
      <path
         d="m 455.19421,412.3815 h 19.04001 l 4.55467,-7.01867 h 18.29334 l 0.896,7.01867 h 18.59201 l -7.91467,-52.64002 H 491.3329 Z m 31.36002,-19.41334 8.13867,-12.69334 1.41866,12.69334 z"
         style="font-family:'Gotham Ultra';-inkscape-font-specification:'Gotham Ultra'"
         id="path7684" />
      <path
         d="m 517.78007,412.3815 h 17.32267 l 7.01867,-25.98401 12.39468,25.98401 h 15.53067 l 14.03734,-52.26669 h -17.32268 l -6.72,24.93868 -11.872,-24.93868 h -16.35201 z"
         style="font-family:'Gotham Ultra';-inkscape-font-specification:'Gotham Ultra'"
         id="path7686" />
      <path
         d="m 575.67594,412.3815 h 22.69868 c 12.096,0 21.13068,-3.36 27.40268,-9.632 5.6,-5.60001 8.58667,-12.76801 8.58667,-20.60801 0,-6.34667 -1.792,-11.42401 -5.67467,-15.30668 -3.95734,-3.95733 -10.304,-6.72 -20.45868,-6.72 h -18.51734 z m 21.57868,-15.23201 5.824,-21.80267 h 2.912 c 4.18134,0 6.79467,0.97066 8.43734,2.61333 1.344,1.344 2.16533,3.21067 2.16533,6.048 0,3.21067 -1.568,6.72001 -3.73333,8.88534 -2.688,2.688 -7.24267,4.256 -12.54401,4.256 z"
         style="font-family:'Gotham Ultra';-inkscape-font-specification:'Gotham Ultra'"
         id="path7688" />
    </g>
  </g>
</svg>

